# xmcd
# 
# Track frame offsets:
#     150
#     14250
#     36020
# 
# Disc length: 679
# 
# Revision: 5
# Processed by: cddbd v1.5.2PL0 Copyright (c) Steve Scherf et al.
# Submitted via: BonkEnc v1.0
# 
DISCID=1802a503
DTITLE=Jason Donovan - Rhythm of the Rain (Maxi CD)
DYEAR=1990
DGENRE=Pop
TTITLE0=Rhythm Of The Rain
TTITLE1=Rhythm Of The Rain (Extended)
TTITLE2=Story Of My Life
EXTD=
EXTT0=
EXTT1=
EXTT2=
PLAYORDER=
